<?xml version="1.0" encoding="utf-8"?>
<!-- Generator: Adobe Illustrator 16.0.0, SVG Export Plug-In . SVG Version: 6.00 Build 0)  -->
<!DOCTYPE svg PUBLIC "-//W3C//DTD SVG 1.1//EN" "http://www.w3.org/Graphics/SVG/1.1/DTD/svg11.dtd">
<svg version="1.1" id="Layer_2" xmlns="http://www.w3.org/2000/svg" xmlns:xlink="http://www.w3.org/1999/xlink" x="0px" y="0px"
	 width="500px" height="500px" viewBox="0 0 500 500" enable-background="new 0 0 500 500" xml:space="preserve">
<g id="Layer_3">
</g>
<g>
	<path fill="#FFFFFF" d="M374.228,252.751c-5.784-0.989-9.673-6.478-8.687-12.263c0.48-2.822,0.714-5.339,0.714-7.695
		c0-24.343-19.807-44.147-44.151-44.147c-5.059,0-10.15,0.92-15.135,2.734c-4.671,1.7-9.887-0.061-12.573-4.234
		c-16.582-25.754-44.704-41.129-75.227-41.129c-49.363,0-89.522,40.156-89.522,89.514c0,2.2,0.167,4.48,0.344,6.896
		c0.377,5.15-2.999,9.878-8.007,11.137c-22.713,5.707-38.576,26.019-38.576,49.393c0,28.139,22.877,51.03,50.996,51.03h231.155
		c28.141,0,51.034-22.892,51.034-51.03C416.593,278.063,398.775,256.95,374.228,252.751z"/>
	<path fill="#808083" d="M387.499,234.139c0.011-0.451,0.016-0.899,0.016-1.346c0-36.066-29.344-65.407-65.411-65.407
		c-4.828,0-9.654,0.553-14.422,1.65c-20.89-27.869-53.415-44.28-88.513-44.28c-61.085,0-110.782,49.693-110.782,110.773
		c0,0.025,0,0.051,0,0.077c-27.617,10.621-46.239,37.184-46.239,67.348c0,39.861,32.414,72.29,72.256,72.29h231.155
		c39.863,0,72.294-32.429,72.294-72.29C437.853,271.04,417.191,243.508,387.499,234.139z M365.559,353.984H134.403
		c-28.119,0-50.996-22.892-50.996-51.03c0-23.374,15.863-43.686,38.576-49.393c5.008-1.259,8.384-5.986,8.007-11.137
		c-0.177-2.415-0.344-4.696-0.344-6.896c0-49.358,40.16-89.514,89.522-89.514c30.522,0,58.645,15.375,75.227,41.129
		c2.687,4.173,7.902,5.934,12.573,4.234c4.984-1.814,10.076-2.734,15.135-2.734c24.345,0,44.151,19.805,44.151,44.147
		c0,2.356-0.233,4.874-0.714,7.695c-0.986,5.785,2.902,11.273,8.687,12.263c24.548,4.199,42.365,25.313,42.365,50.203
		C416.593,331.093,393.699,353.984,365.559,353.984z"/>
</g>
</svg>
