<?xml version="1.0" encoding="utf-8"?>
<!-- Generator: Adobe Illustrator 16.0.0, SVG Export Plug-In . SVG Version: 6.00 Build 0)  -->
<!DOCTYPE svg PUBLIC "-//W3C//DTD SVG 1.1//EN" "http://www.w3.org/Graphics/SVG/1.1/DTD/svg11.dtd">
<svg version="1.1" id="Layer_2" xmlns="http://www.w3.org/2000/svg" xmlns:xlink="http://www.w3.org/1999/xlink" x="0px" y="0px"
	 width="500px" height="500px" viewBox="0 0 500 500" enable-background="new 0 0 500 500" xml:space="preserve">
<g id="Layer_3">
</g>
<g>
	<path fill="#FFFFFF" d="M194.792,150.977c0-8.073,0.622-16.106,1.857-24.033c-48.018,21.079-80.217,69.213-80.217,122.755
		c0,73.878,60.104,133.981,133.982,133.981c52.972,0,100.897-31.75,122.248-79.105c-7.469,1.093-15.031,1.643-22.628,1.643
		C264.433,306.218,194.792,236.577,194.792,150.977z"/>
	<path fill="#EAC618" d="M386.391,279.966c-11.781,3.313-24.014,4.992-36.357,4.992c-73.878,0-133.981-60.104-133.981-133.981
		c0-12.749,1.794-25.375,5.333-37.527l5.355-18.39l-18.439,5.186c-31.936,8.981-60.716,28.488-81.039,54.927
		c-20.993,27.311-32.09,59.998-32.09,94.527c0,85.601,69.641,155.241,155.242,155.241c34.279,0,66.776-10.952,93.977-31.672
		c26.318-20.048,45.88-48.493,55.083-80.098l5.354-18.389L386.391,279.966z M250.414,383.681
		c-73.878,0-133.982-60.104-133.982-133.981c0-53.542,32.2-101.676,80.217-122.755c-1.235,7.926-1.857,15.959-1.857,24.033
		c0,85.6,69.641,155.241,155.241,155.241c7.597,0,15.159-0.55,22.628-1.643C351.311,351.931,303.386,383.681,250.414,383.681z"/>
	<polygon fill="#58A1D4" points="358.369,113.728 362.786,122.677 372.661,124.112 365.516,131.077 367.203,140.913 358.369,136.27 
		349.536,140.913 351.223,131.077 344.077,124.112 353.952,122.677 	"/>
	<polygon fill="#58A1D4" points="276.962,125.513 283.578,138.921 298.375,141.072 287.668,151.507 290.197,166.244 
		276.962,159.288 263.727,166.244 266.254,151.507 255.546,141.072 270.344,138.921 	"/>
	<polygon fill="#58A1D4" points="332.461,195.113 340.467,211.335 358.369,213.937 345.414,226.563 348.474,244.394 
		332.461,235.976 316.446,244.394 319.506,226.563 306.552,213.937 324.455,211.335 	"/>
</g>
</svg>
