<?xml version="1.0" encoding="utf-8"?>
<!-- Generator: Adobe Illustrator 16.0.0, SVG Export Plug-In . SVG Version: 6.00 Build 0)  -->
<!DOCTYPE svg PUBLIC "-//W3C//DTD SVG 1.1//EN" "http://www.w3.org/Graphics/SVG/1.1/DTD/svg11.dtd">
<svg version="1.1" id="Layer_2" xmlns="http://www.w3.org/2000/svg" xmlns:xlink="http://www.w3.org/1999/xlink" x="0px" y="0px"
	 width="500px" height="500px" viewBox="0 0 500 500" enable-background="new 0 0 500 500" xml:space="preserve">
<g id="Layer_3">
</g>
<g>
	<g>
		<path fill="#FFFFFF" d="M372.362,204.65c-5.784-0.989-9.673-6.479-8.687-12.263c0.48-2.822,0.714-5.339,0.714-7.695
			c0-24.343-19.807-44.147-44.151-44.147c-5.059,0-10.15,0.92-15.137,2.734c-4.664,1.697-9.885-0.06-12.572-4.235
			c-16.581-25.754-44.703-41.129-75.227-41.129c-49.363,0-89.522,40.156-89.522,89.514c0,2.201,0.167,4.482,0.345,6.898
			c0.377,5.151-3,9.875-8.008,11.134c-22.713,5.707-38.576,26.017-38.576,49.392c0,28.138,22.877,51.03,50.996,51.03h231.156
			c28.141,0,51.034-22.893,51.034-51.03C414.728,229.96,396.91,208.848,372.362,204.65z"/>
		<path fill="#808083" d="M385.634,186.037c0.011-0.45,0.016-0.899,0.016-1.345c0-36.065-29.344-65.407-65.411-65.407
			c-4.828,0-9.654,0.553-14.423,1.65c-20.889-27.87-53.414-44.28-88.513-44.28c-61.086,0-110.782,49.693-110.782,110.773
			c0,0.025,0,0.051,0,0.077c-27.614,10.622-46.239,37.184-46.239,67.347c0,39.861,32.414,72.29,72.256,72.29h231.156
			c39.863,0,72.294-32.429,72.294-72.29C435.987,222.938,415.326,195.405,385.634,186.037z M363.693,305.882H132.537
			c-28.119,0-50.996-22.893-50.996-51.03c0-23.375,15.863-43.685,38.576-49.392c5.008-1.259,8.385-5.983,8.008-11.134
			c-0.178-2.416-0.345-4.697-0.345-6.898c0-49.358,40.159-89.514,89.522-89.514c30.523,0,58.646,15.375,75.227,41.129
			c2.688,4.175,7.908,5.932,12.572,4.235c4.986-1.814,10.078-2.734,15.137-2.734c24.345,0,44.151,19.805,44.151,44.147
			c0,2.356-0.233,4.874-0.714,7.695c-0.986,5.785,2.902,11.274,8.687,12.263c24.548,4.198,42.365,25.311,42.365,50.202
			C414.728,282.989,391.834,305.882,363.693,305.882z"/>
	</g>
	<g>
		<path fill="#A7A9AB" d="M370.943,423.346h-78.377c-5.871,0-10.63-4.759-10.63-10.63s4.759-10.63,10.63-10.63h78.377
			c5.871,0,10.63,4.759,10.63,10.63S376.814,423.346,370.943,423.346z"/>
	</g>
	<g>
		<path fill="#A7A9AB" d="M175.485,162.91H65.453c-5.871,0-10.63-4.759-10.63-10.63s4.759-10.63,10.63-10.63h110.032
			c5.87,0,10.63,4.759,10.63,10.63S181.355,162.91,175.485,162.91z"/>
	</g>
	<g>
		<path fill="#A7A9AB" d="M445.082,271.937H288.326c-5.871,0-10.63-4.759-10.63-10.63s4.759-10.63,10.63-10.63h156.756
			c5.871,0,10.63,4.759,10.63,10.63S450.953,271.937,445.082,271.937z"/>
	</g>
	<g>
		<path fill="#A7A9AB" d="M217.952,423.346H61.196c-5.87,0-10.63-4.759-10.63-10.63s4.76-10.63,10.63-10.63h156.756
			c5.87,0,10.63,4.759,10.63,10.63S223.822,423.346,217.952,423.346z"/>
	</g>
	<g>
		<path fill="#A7A9AB" d="M381.148,369.002H101.499c-5.87,0-10.63-4.759-10.63-10.63s4.76-10.63,10.63-10.63h279.649
			c5.871,0,10.63,4.759,10.63,10.63S387.02,369.002,381.148,369.002z"/>
	</g>
	<g>
		<path fill="#A7A9AB" d="M199.203,239.126H54.918c-5.871,0-10.63-4.759-10.63-10.63s4.759-10.63,10.63-10.63h144.285
			c5.871,0,10.63,4.759,10.63,10.63S205.074,239.126,199.203,239.126z"/>
	</g>
	<g>
		<path fill="#A7A9AB" d="M426.561,179.762h-102.4c-5.871,0-10.63-4.759-10.63-10.63s4.759-10.63,10.63-10.63h102.4
			c5.871,0,10.63,4.759,10.63,10.63S432.432,179.762,426.561,179.762z"/>
	</g>
	<g>
		<path fill="#A7A9AB" d="M240.848,288.595H130.965c-5.871,0-10.63-4.759-10.63-10.63s4.759-10.63,10.63-10.63h109.883
			c5.871,0,10.63,4.759,10.63,10.63S246.719,288.595,240.848,288.595z"/>
	</g>
	<g>
		<path fill="#A7A9AB" d="M277.486,203.536h-84.216c-5.87,0-10.63-4.759-10.63-10.63s4.76-10.63,10.63-10.63h84.216
			c5.871,0,10.63,4.759,10.63,10.63S283.357,203.536,277.486,203.536z"/>
	</g>
</g>
</svg>
