<?xml version="1.0" encoding="utf-8"?>
<!-- Generator: Adobe Illustrator 16.0.0, SVG Export Plug-In . SVG Version: 6.00 Build 0)  -->
<!DOCTYPE svg PUBLIC "-//W3C//DTD SVG 1.1//EN" "http://www.w3.org/Graphics/SVG/1.1/DTD/svg11.dtd">
<svg version="1.1" id="Layer_2" xmlns="http://www.w3.org/2000/svg" xmlns:xlink="http://www.w3.org/1999/xlink" x="0px" y="0px"
	 width="500px" height="500px" viewBox="0 0 500 500" enable-background="new 0 0 500 500" xml:space="preserve">
<g id="Layer_3">
</g>
<g>
	<path fill="#FFFFFF" d="M245.421,129.269c0-8.073,0.622-16.106,1.857-24.032c-48.017,21.079-80.215,69.213-80.215,122.755
		c0,73.878,60.103,133.982,133.98,133.982c52.973,0,100.896-31.749,122.248-79.105c-7.469,1.093-15.031,1.643-22.629,1.643
		C315.063,284.511,245.421,214.869,245.421,129.269z"/>
	<path fill="#EAC618" d="M437.02,258.258c-11.779,3.313-24.012,4.993-36.357,4.993c-73.877,0-133.98-60.104-133.98-133.982
		c0-12.748,1.793-25.374,5.332-37.527l5.355-18.391l-18.439,5.187c-31.934,8.981-60.714,28.488-81.037,54.927
		c-20.994,27.311-32.09,59.998-32.09,94.527c0,85.601,69.64,155.242,155.24,155.242c34.279,0,66.775-10.952,93.977-31.673
		c26.318-20.047,45.881-48.493,55.084-80.098l5.354-18.391L437.02,258.258z M301.043,361.974
		c-73.877,0-133.98-60.104-133.98-133.982c0-53.542,32.199-101.676,80.215-122.755c-1.235,7.926-1.857,15.959-1.857,24.032
		c0,85.601,69.641,155.242,155.241,155.242c7.598,0,15.16-0.55,22.629-1.643C401.939,330.225,354.016,361.974,301.043,361.974z"/>
	<path fill="#FFFFFF" d="M250.153,347.108c-5.783-0.989-9.671-6.478-8.686-12.262c0.275-1.619,0.41-3.048,0.41-4.366
		c0-13.738-11.178-24.915-24.917-24.915c-2.844,0-5.719,0.521-8.546,1.55c-4.665,1.694-9.883-0.063-12.57-4.236
		c-10.069-15.639-27.145-24.976-45.677-24.976c-29.974,0-54.359,24.383-54.359,54.353c0,1.288,0.103,2.697,0.211,4.189
		c0.375,5.149-3,9.871-8.007,11.13c-13.077,3.287-22.209,14.979-22.209,28.433c0,16.201,13.17,29.382,29.359,29.382h149.995
		c16.203,0,29.384-13.181,29.384-29.382C274.541,361.681,264.283,349.526,250.153,347.108z"/>
	<path fill="#808083" d="M263.102,328.686c-0.947-24.632-21.282-44.38-46.142-44.38c-2.616,0-5.23,0.229-7.824,0.686
		c-14.288-17.881-35.807-28.348-58.969-28.348c-40.872,0-74.274,32.594-75.58,73.15c-18.045,8.002-30.044,25.948-30.044,46.214
		c0,27.924,22.708,50.642,50.619,50.642h149.995c27.925,0,50.644-22.718,50.644-50.642
		C295.801,354.585,282.512,335.979,263.102,328.686z M245.157,405.39H95.162c-16.189,0-29.359-13.181-29.359-29.382
		c0-13.454,9.133-25.146,22.209-28.433c5.007-1.259,8.382-5.98,8.007-11.13c-0.109-1.492-0.211-2.901-0.211-4.189
		c0-29.97,24.385-54.353,54.359-54.353c18.532,0,35.607,9.337,45.677,24.976c2.687,4.174,7.906,5.931,12.57,4.236
		c2.827-1.028,5.702-1.55,8.546-1.55c13.739,0,24.917,11.177,24.917,24.915c0,1.318-0.134,2.747-0.41,4.366
		c-0.985,5.784,2.903,11.272,8.686,12.262c14.13,2.418,24.388,14.572,24.388,28.899C274.541,392.209,261.359,405.39,245.157,405.39z
		"/>
</g>
</svg>
