<?xml version="1.0" standalone="no"?>
<!DOCTYPE svg PUBLIC "-//W3C//DTD SVG 20010904//EN"
 "http://www.w3.org/TR/2001/REC-SVG-20010904/DTD/svg10.dtd">
<svg version="1.0" xmlns="http://www.w3.org/2000/svg"
 width="1280.000000pt" height="953.000000pt" viewBox="0 0 1280.000000 953.000000"
 preserveAspectRatio="xMidYMid meet">
<metadata>
Created by potrace 1.15, written by Peter Selinger 2001-2017
</metadata>
<g transform="translate(0.000000,953.000000) scale(0.100000,-0.100000)"
fill="#cddc39" stroke="none">
<path d="M8870 9522 c0 -14 73 -79 125 -111 79 -50 187 -86 390 -131 667 -147
1387 -445 1809 -748 103 -74 252 -216 316 -300 61 -81 124 -206 145 -287 18
-70 21 -210 5 -280 -47 -214 -169 -388 -444 -633 l-141 -125 -7 74 c-27 272
-133 488 -342 694 -358 355 -960 586 -1888 725 -200 30 -196 32 -107 -53 98
-93 233 -174 634 -380 465 -238 576 -307 715 -447 214 -213 211 -417 -8 -661
-60 -68 -206 -189 -302 -252 -84 -55 -337 -183 -346 -174 -3 3 0 33 7 66 16
83 7 239 -20 321 -72 226 -294 424 -581 519 -143 48 -325 70 -454 57 l-67 -8
38 -30 c21 -16 97 -71 168 -121 279 -197 389 -348 372 -516 -26 -255 -412
-506 -999 -651 -891 -219 -2113 -221 -3076 -5 -269 60 -507 151 -654 248 -84
56 -172 155 -197 222 -27 71 -27 158 -2 231 56 157 194 250 556 374 220 76
363 143 430 204 49 44 49 45 20 41 -16 -3 -79 -12 -139 -20 -468 -67 -879
-187 -1118 -327 -90 -53 -217 -176 -251 -243 -68 -135 -51 -296 48 -451 19
-30 30 -54 24 -54 -6 0 -46 9 -88 20 -383 98 -776 337 -886 540 -27 49 -30 65
-30 140 0 78 3 90 35 150 107 199 391 382 1040 670 433 192 563 257 537 271
-28 16 -252 31 -367 24 -664 -37 -1338 -274 -1715 -603 -225 -196 -341 -438
-319 -666 l7 -69 -78 42 c-318 171 -512 373 -570 591 -19 71 -19 200 0 273 58
223 244 422 580 622 573 340 1404 591 2425 733 l125 17 3 68 3 67 -63 0 c-104
0 -501 -33 -728 -61 -999 -121 -1902 -372 -2625 -729 -488 -241 -763 -524
-807 -830 -58 -393 332 -800 1027 -1073 174 -68 254 -94 523 -172 l213 -61 48
-75 c263 -409 733 -715 1540 -1003 1225 -437 2540 -742 3731 -865 747 -78
1532 -85 2190 -20 153 15 907 106 1030 124 393 59 715 146 948 256 291 137
535 367 645 609 35 77 68 170 60 170 -3 0 -62 -25 -132 -56 -864 -384 -1890
-613 -3016 -674 -241 -13 -892 -13 -1140 0 -1366 70 -2745 351 -4110 837 -275
98 -388 145 -575 237 -169 84 -471 249 -465 254 1 2 70 -13 151 -32 728 -172
1582 -289 2514 -346 688 -41 1859 -41 2650 0 1255 66 2454 299 3476 675 583
215 936 415 1181 668 274 283 363 590 258 889 -88 252 -328 504 -687 721 -166
100 -525 275 -748 363 -658 260 -1429 440 -2243 524 -230 23 -207 22 -207 12z"/>
<path d="M6085 6859 c-305 -24 -669 -75 -875 -124 -155 -37 -341 -97 -347
-112 -8 -21 49 -122 106 -184 188 -208 547 -316 1116 -335 184 -6 483 5 685
27 191 20 617 80 710 100 205 45 322 111 374 212 27 52 28 60 17 97 -42 139
-311 239 -761 280 -553 51 -764 59 -1025 39z"/>
<path d="M12225 6657 c-299 -212 -772 -463 -1195 -634 -984 -398 -2108 -594
-3885 -678 -176 -8 -358 -17 -405 -19 -132 -6 -382 11 -775 54 -588 64 -790
71 -1055 34 -58 -8 -141 -24 -185 -36 -82 -22 -170 -56 -147 -57 7 -1 158 -19
335 -41 748 -91 1315 -144 1947 -181 299 -17 1192 -23 1475 -10 860 40 1652
148 2310 316 889 226 1396 568 1588 1070 36 92 70 225 59 225 -4 -1 -34 -20
-67 -43z"/>
<path d="M2580 5381 c0 -4 41 -59 91 -122 697 -871 1894 -1410 3679 -1658 710
-98 1690 -151 2810 -151 605 0 901 20 1200 80 592 119 915 397 984 848 l6 42
-137 -69 c-561 -282 -1189 -445 -1968 -513 -234 -20 -1045 -17 -1305 5 -1048
90 -2088 308 -3240 678 -373 120 -470 161 -1040 439 -403 197 -522 251 -707
319 -126 46 -373 114 -373 102z"/>
<path d="M4730 3509 c296 -279 740 -523 1274 -700 587 -195 1300 -294 1866
-260 609 37 1064 168 1421 410 116 79 202 151 179 151 -127 -1 -613 -26 -925
-47 -330 -22 -474 -27 -825 -27 -676 -1 -874 29 -1575 245 -826 254 -1077 310
-1380 309 l-120 -1 85 -80z"/>
<path d="M4926 2926 c24 -167 111 -301 299 -461 102 -87 388 -280 515 -348
180 -97 431 -184 668 -232 656 -134 1322 -77 1812 156 132 63 276 158 366 243
l69 65 -556 1 c-562 0 -817 8 -1144 35 -721 61 -1299 213 -1842 486 l-193 96
6 -41z"/>
<path d="M4990 2065 c0 -128 55 -240 181 -365 132 -132 408 -314 599 -394 549
-232 1222 -181 1669 127 78 54 250 211 241 220 -10 10 -318 27 -690 37 -423
12 -652 24 -820 46 -368 47 -686 147 -1027 325 l-153 79 0 -75z"/>
<path d="M4790 1165 c0 -13 52 -139 83 -200 161 -320 519 -693 889 -928 57
-36 58 -36 62 -14 2 12 10 49 16 82 25 129 133 302 261 419 140 127 307 298
356 364 30 41 53 75 51 76 -1 2 -55 0 -118 -5 -462 -31 -883 17 -1413 162
-194 53 -187 51 -187 44z"/>
</g>
</svg>
